PathFileType	4	(X/Y/Z)	D:\Share\Shared_Data\Ergonomics\Sit To Stand Pertubation\S2\Unperturbed.trc
DataRate	CameraRate	NumFrames	NumMarkers	Units	OrigDataRate	OrigDataStartFrame	OrigNumFrames	
100	100	18	18	m	100	4042	291
Frame#	Time	R_Toe			R_ASIS			R_Pelvis			V_Sacral			L_Pelvis			L_ASIS			Clavical			R_Acromium			L_Acromium			Sternum			Torso			R_Thigh_Med			R_Thigh_Lat			R_Thigh			R_Shank_Med			R_Shank_Lat			R_Shank			R_Heel			
		X1	Y1	Z1	X2	Y2	Z2	X3	Y3	Z3	X4	Y4	Z4	X5	Y5	Z5	X6	Y6	Z6	X7	Y7	Z7	X8	Y8	Z8	X9	Y9	Z9	X10	Y10	Z10	X11	Y11	Z11	X12	Y12	Z12	X13	Y13	Z13	X14	Y14	Z14	X15	Y15	Z15	X16	Y16	Z16	X17	Y17	Z17	X18	Y18	Z18	

4042	40.41	0.44211545	0.064636772	0.14999396	0.35227267	1.0034808	0.14502615	0.28196539	1.0218776	0.18708247	0.13986041	1.0409572	0.027443836	0.24258931	1.0348118	-0.15248369	0.33611124	1.0185306	-0.12470049	0.49159021	1.3952321	0.0035248206	0.41683224	1.4461591	0.21099123	0.39557663	1.4565304	-0.18116687	0.48974524	1.2317694	0.0020003192	0.48595432	1.3560017	-0.11067411	0.40038901	0.49248993	0.10761054	0.3846142	0.51491376	0.20132959	0.42338129	0.6956261	0.17272835	0.30744418	0.10731391	0.11005203	0.28553058	0.10108437	0.2011879	0.34530273	0.36734393	0.22625101	0.20471896	0.061111214	0.15108772
4043	40.42	0.44215359	0.064617004	0.14999152	0.35518918	1.005129	0.14502788	0.28458096	1.0228409	0.18693488	0.14257716	1.041489	0.027215363	0.24516982	1.0356902	-0.15268269	0.33863348	1.0201686	-0.1248689	0.49065875	1.398726	0.0037449427	0.41522122	1.4487174	0.21126056	0.39395444	1.4590809	-0.18067628	0.49048648	1.23513	0.0020271103	0.48537524	1.3594089	-0.11057601	0.39980231	0.49259177	0.10725856	0.38410825	0.51513751	0.20089037	0.42449448	0.69536597	0.17261372	0.30750873	0.10730276	0.10998854	0.28554071	0.10114798	0.20110953	0.34483273	0.36758334	0.22594046	0.2047312	0.061225929	0.15109523
4044	40.43	0.44219189	0.064599419	0.14999205	0.35812585	1.0067241	0.14501675	0.28718295	1.0237488	0.18677356	0.14526385	1.0419626	0.026994177	0.2476904	1.0365171	-0.15288885	0.34108795	1.0217782	-0.12504154	0.48971097	1.4021044	0.0039621141	0.41358002	1.4511801	0.21152159	0.39234326	1.4614829	-0.18015706	0.49122836	1.2383931	0.0020839419	0.48478342	1.3626871	-0.1104677	0.39923822	0.49268359	0.1068794	0.38360773	0.51535687	0.20043967	0.42561652	0.69511316	0.17249176	0.30761465	0.10730658	0.10992681	0.28554962	0.10121033	0.20103279	0.34436508	0.367823	0.22561548	0.20475461	0.061338341	0.15110725
4045	40.44	0.44223044	0.064583763	0.14999435	0.36107663	1.0082678	0.14498676	0.28977786	1.0246003	0.18659378	0.14792184	1.0423853	0.02678639	0.25014597	1.0373052	-0.15309715	0.34348099	1.0233736	-0.1252208	0.48875101	1.40537	0.0041778321	0.41191165	1.4535555	0.21177431	0.39074417	1.4637388	-0.17961098	0.49195392	1.2415616	0.0021705892	0.48418463	1.3658409	-0.1103477	0.39869308	0.49276587	0.10647526	0.3831131	0.51557135	0.19997569	0.42674039	0.69486584	0.17235742	0.3077627	0.10732459	0.10986594	0.28555774	0.10127197	0.20095667	0.34389993	0.36806256	0.22527602	0.2047906	0.061446384	0.15112352
4046	40.45	0.44226947	0.064569412	0.14999725	0.36402417	1.0097582	0.14493288	0.29236844	1.0253948	0.18639519	0.15055009	1.0427623	0.026598833	0.25253349	1.0380641	-0.15330243	0.34582306	1.0249636	-0.12540878	0.48778073	1.4085243	0.0043925247	0.41022055	1.4558512	0.21201735	0.38915866	1.465853	-0.17905489	0.49263586	1.2446366	0.0022852731	0.48358261	1.3688748	-0.11021487	0.39816498	0.49284033	0.10604861	0.38262582	0.51577972	0.19949455	0.42785834	0.69462134	0.17220569	0.30794293	0.10735341	0.10980499	0.28556613	0.10133377	0.20088016	0.34343985	0.36830084	0.22492242	0.20483873	0.061548073	0.15114211
4047	40.46	0.44230911	0.064555412	0.14999957	0.36694852	1.0111917	0.14485254	0.29495322	1.0261315	0.18618053	0.15314514	1.0430968	0.026437237	0.25485271	1.0388008	-0.1534996	0.34812924	1.0265497	-0.12560679	0.48680054	1.4115679	0.0046057653	0.40851202	1.4580723	0.21224925	0.38758792	1.4678322	-0.17851659	0.49325009	1.247618	0.0024247515	0.48297778	1.371793	-0.11006905	0.39765427	0.4929108	0.10560093	0.3821467	0.51598108	0.19898996	0.42896442	0.69437799	0.17203128	0.30813312	0.10738663	0.10974345	0.28557599	0.10139689	0.20080211	0.34298813	0.36853751	0.22455396	0.20489529	0.061641266	0.1511582
4048	40.47	0.44234918	0.064540932	0.15000049	0.36983279	1.0125635	0.14474626	0.29752698	1.0268112	0.18595392	0.15570233	1.0433893	0.02630419	0.25710681	1.0395172	-0.15368503	0.35041751	1.0281246	-0.12581474	0.48581131	1.4145018	0.0048166695	0.40679144	1.4602229	0.21246962	0.38603137	1.4696842	-0.17801822	0.49378348	1.2505061	0.0025850537	0.48236768	1.3745992	-0.10991176	0.39715961	0.49298196	0.10513177	0.38167554	0.51617529	0.19845583	0.43005478	0.69413568	0.17182965	0.30830856	0.1074173	0.1096811	0.28558823	0.10146247	0.20072137	0.342547	0.36877301	0.22416891	0.20495438	0.06172422	0.15116554
4049	40.48	0.44238931	0.064525734	0.14999939	0.37266483	1.0138693	0.14461761	0.3000813	1.0274354	0.18571925	0.15821719	1.0436393	0.026197626	0.25930231	1.0402113	-0.15385788	0.35270276	1.029674	-0.12603152	0.48481555	1.4173259	0.0050242853	0.40506497	1.4623037	0.21267998	0.38448587	1.4714167	-0.17756743	0.49423355	1.2533015	0.002761909	0.48174799	1.3772974	-0.10974625	0.39667398	0.49305682	0.10463895	0.38121097	0.51636212	0.19788988	0.43112701	0.69389496	0.17159776	0.3084588	0.10744282	0.10961756	0.28560312	0.10153113	0.20063724	0.34211517	0.36900821	0.2237657	0.20501056	0.061796436	0.15116006
4050	40.49	0.44242865	0.064510254	0.14999602	0.37543735	1.0151066	0.14447209	0.30260498	1.0280076	0.1854799	0.16068602	1.0438463	0.026110083	0.26144843	1.0408782	-0.15401988	0.3549848	1.0311786	-0.1262559	0.48381696	1.4200406	0.0052278247	0.40333984	1.4643136	0.2128831	0.38294672	1.4730367	-0.17716403	0.4946059	1.256005	0.0029502933	0.48111411	1.3798909	-0.10957672	0.39618387	0.49313547	0.10412098	0.38074866	0.51654156	0.19729395	0.43217905	0.69365662	0.1713349	0.30859195	0.10746613	0.10955213	0.28561942	0.10160267	0.20054945	0.34168774	0.36924405	0.22334375	0.205061	0.061858593	0.15114157
4051	40.5	0.44246628	0.064495186	0.14998994	0.378146	1.0162746	0.14431583	0.3050845	1.0285314	0.18523912	0.16310606	1.0440098	0.02602956	0.26355585	1.0415104	-0.1541741	0.35724475	1.0326199	-0.12648669	0.48281897	1.4226455	0.0054265437	0.40162439	1.4662491	0.2130811	0.38140958	1.4745538	-0.17680641	0.49491101	1.2586183	0.00314361	0.48046262	1.3823833	-0.10940727	0.39567294	0.4932157	0.10357968	0.38027988	0.5167124	0.19667183	0.43320724	0.6934201	0.17104291	0.30871872	0.10749048	0.10948446	0.28563507	0.10167617	0.20045819	0.34125732	0.36948169	0.22290326	0.20510501	0.061911663	0.15111264
4052	40.51	0.4425015	0.064480995	0.14998093	0.3807879	1.0173745	0.1441546	0.30750574	1.0290111	0.18500006	0.165476	1.044131	0.025942265	0.2656358	1.0420999	-0.15432457	0.35946329	1.0339828	-0.12672096	0.48182281	1.4251398	0.0056194353	0.39992657	1.4681047	0.21327444	0.37987173	1.4759791	-0.17649187	0.49516183	1.2611409	0.0033336637	0.47979156	1.3847786	-0.10924139	0.39512671	0.49329507	0.10302059	0.3797926	0.51687421	0.19602858	0.4342048	0.69318323	0.1707261	0.30883817	0.10751473	0.10941495	0.28564774	0.10175038	0.20036407	0.34081494	0.36972189	0.22244513	0.20514307	0.061956329	0.15107657
4053	40.52	0.44253366	0.064467911	0.14996928	0.38336127	1.01841	0.14399336	0.30985687	1.0294517	0.18476535	0.1677962	1.0442124	0.025836006	0.26769833	1.0426398	-0.15447568	0.36164551	1.035262	-0.12695297	0.48082751	1.4275233	0.0058052864	0.39825314	1.4698744	0.21346242	0.37833292	1.4773254	-0.17621667	0.49537296	1.2635725	0.0035119271	0.47910107	1.3870807	-0.10908215	0.39453613	0.49337231	0.10245158	0.37927353	0.5170271	0.19537135	0.4351618	0.69294208	0.17039075	0.30894293	0.10753504	0.10934433	0.28565536	0.10182387	0.20026801	0.34034995	0.36996463	0.22197176	0.20517592	0.061993301	0.15103627
4054	40.53	0.44256253	0.064455956	0.14995612	0.38586536	1.0193863	0.14383611	0.31213083	1.0298568	0.18453653	0.17006924	1.0442594	0.025702318	0.26975183	1.0431252	-0.15463144	0.36382477	1.0364633	-0.12717548	0.47983127	1.429796	0.0059829316	0.39660855	1.4715507	0.21364406	0.37679492	1.4786053	-0.17597559	0.49556064	1.265913	0.0036712492	0.47839249	1.3892932	-0.10893257	0.39389847	0.49344772	0.10188141	0.3787095	0.51717181	0.19470819	0.43606598	0.69269189	0.17004381	0.30902847	0.10754839	0.10927309	0.28565649	0.10189508	0.20017117	0.3398501	0.37020905	0.22148827	0.20520418	0.062023716	0.15099442
4055	40.54	0.44258786	0.064445168	0.14994302	0.38830087	1.0203094	0.14368623	0.31432736	1.0302314	0.18431387	0.17229921	1.0442784	0.025536732	0.27180154	1.0435555	-0.15479512	0.36604037	1.0375964	-0.12738303	0.47883316	1.4319594	0.0061509924	0.39499487	1.4731265	0.21381828	0.37526016	1.479829	-0.17576253	0.49574045	1.2681635	0.0038067007	0.47766794	1.3914192	-0.10879556	0.39321259	0.49352167	0.10131779	0.37808835	0.51730817	0.19404526	0.43690659	0.69242859	0.16969238	0.30909427	0.10755318	0.10920161	0.28565005	0.10196229	0.20007509	0.33930307	0.37045428	0.22100188	0.20522806	0.062049126	0.15095338
4056	40.55	0.44260956	0.06443573	0.14993166	0.39066901	1.0211849	0.14354654	0.31645337	1.0305797	0.18409622	0.17449065	1.0442758	0.025338545	0.27384998	1.0439319	-0.15496881	0.36831595	1.0386687	-0.1275737	0.4778324	1.4340153	0.0063075485	0.39341116	1.4745947	0.21398308	0.37373026	1.481001	-0.1755719	0.49592081	1.2703248	0.0039152465	0.47692975	1.3934611	-0.10867361	0.39247586	0.4935928	0.10076559	0.37740091	0.5174353	0.19338541	0.43767975	0.6921499	0.16934271	0.30914154	0.10754903	0.10913062	0.28563525	0.10202387	0.1999812	0.33869888	0.37069995	0.22051901	0.20524794	0.062070866	0.15091508
4057	40.56	0.44262759	0.064427765	0.14992317	0.39297131	1.0220168	0.14341849	0.31852188	1.0309043	0.1838808	0.17664813	1.0442563	0.025110561	0.27589639	1.0442584	-0.15515356	0.37065134	1.0396833	-0.12774935	0.47682761	1.4359673	0.0064504776	0.39185391	1.4759497	0.21413591	0.37220578	1.4821217	-0.1754001	0.49609964	1.2723992	0.0039951639	0.47618008	1.395422	-0.10856862	0.39168561	0.49365799	0.10022654	0.37664246	0.51755139	0.19272803	0.43839145	0.69185486	0.16900056	0.30917249	0.10753639	0.10906075	0.28561182	0.10207892	0.19989046	0.3380321	0.3709465	0.22004251	0.2052641	0.062089737	0.15088048
4058	40.57	0.44264191	0.064421211	0.14991797	0.39520993	1.0228079	0.14330219	0.32054883	1.0312067	0.18366411	0.17877599	1.0442225	0.024857815	0.27793753	1.0445402	-0.15535005	0.37302094	1.0406373	-0.1279156	0.47581717	1.4378204	0.0065781174	0.39031787	1.4771876	0.21427477	0.37068692	1.483188	-0.17524649	0.49626987	1.2743895	0.0040457568	0.47542047	1.3973036	-0.10848177	0.39084116	0.49371274	0.099700989	0.375814	0.5176543	0.19207025	0.43905408	0.6915412	0.16867157	0.30918967	0.10751633	0.10899193	0.28557996	0.10212781	0.19980269	0.33730334	0.37119415	0.21957156	0.20527701	0.062106365	0.15084917
4059	40.58	0.44265283	0.064415833	0.14991531	0.39738855	1.0235601	0.14319643	0.32254861	1.031485	0.18344354	0.18087801	1.0441754	0.024585766	0.27996841	1.044782	-0.15555919	0.37538242	1.0415232	-0.1280808	0.47480081	1.4395811	0.0066895423	0.38879694	1.4783063	0.21439807	0.36917328	1.4841979	-0.17511189	0.49642599	1.2762985	0.004066885	0.4746517	1.3991079	-0.10841369	0.38994763	0.49375223	0.099190079	0.37492154	0.51774207	0.19140843	0.43967953	0.69120441	0.16836003	0.30919662	0.10749035	0.10892341	0.28554077	0.10217206	0.19971687	0.33651938	0.37144235	0.21910381	0.20528729	0.062121563	0.15081999
